<svg width="30" height="25" viewBox="0 0 30 25" fill="none" xmlns="http://www.w3.org/2000/svg">
<path d="M0 5.74219C0 4.18834 0.454427 2.86171 1.40783 1.90802L3.06616 3.56635C1.22028 5.40547 2.83277 11.1233 8.08799 16.3843C13.3431 21.6444 19.0645 23.2544 20.9092 21.4122L22.5676 23.0705C19.4564 26.1816 12.3694 23.974 6.43829 18.041C2.32344 13.9245 0 9.2543 0 5.74233V5.74219Z" fill="#009A46"/>
<path d="M10.458 24.5C8.90398 24.5 7.57734 24.0456 6.62207 23.0922L8.2804 21.4337C10.1227 23.2761 15.8405 21.6644 21.1009 16.4051C26.361 11.1464 27.9702 5.42859 26.1278 3.58631L27.7861 1.92798C30.899 5.03912 28.6895 12.1253 22.7557 18.0573C18.6399 22.1781 13.9698 24.5 10.4578 24.5H10.458Z" fill="#FF5805"/>
<path d="M23.3051 15.6838C22.2981 12.7851 20.2424 9.68772 17.5138 6.96102C11.5817 1.02703 4.49557 -1.18173 1.38443 1.93143C1.16426 2.15347 1.35497 2.70275 1.81285 3.15947C2.27058 3.61735 2.81914 3.80648 3.04017 3.58631C4.88432 1.74388 10.6022 3.35564 15.8606 8.61575C18.3481 11.1033 20.2026 13.8812 21.0957 16.4517C21.879 18.706 21.8022 20.5234 20.8901 21.4354C20.6682 21.6556 20.8608 22.2067 21.3168 22.6626C21.773 23.1187 22.3231 23.3105 22.546 23.0884C24.1397 21.4948 24.4099 18.8613 23.3051 15.6837V15.6838Z" fill="#F5AFCB"/>
<path d="M27.7828 1.93143C26.186 0.33433 23.5557 0.0638584 20.3746 1.16946C17.4777 2.17489 14.3785 4.23317 11.6518 6.9593C5.71954 12.8914 3.51122 19.9774 6.62222 23.0904C6.84425 23.3106 7.39353 23.1208 7.8504 22.6645C8.30814 22.2086 8.49899 21.6576 8.27709 21.4356C6.42964 19.5931 8.04643 13.8752 13.3068 8.61404C15.7944 6.12647 18.572 4.27284 21.1426 3.37893C23.3968 2.59813 25.2142 2.67243 26.1281 3.58459C26.3482 3.80476 26.8992 3.61491 27.3555 3.15718C27.8115 2.69916 28.0033 2.15175 27.7829 1.93158L27.7828 1.93143Z" fill="#FF9B00"/>
</svg>
